<?xml version="1.0" encoding="utf-8"?>
<!-- Generator: Adobe Illustrator 25.2.3, SVG Export Plug-In . SVG Version: 6.00 Build 0)  -->
<svg version="1.1" xmlns="http://www.w3.org/2000/svg" xmlns:xlink="http://www.w3.org/1999/xlink" x="0px" y="0px"
	 viewBox="0 0 558 162" style="enable-background:new 0 0 558 162;" xml:space="preserve">
<style type="text/css">
	.st0{fill-rule:evenodd;clip-rule:evenodd;fill:#435DAA;}
	.st1{fill:#435DAA;}
</style>
<g id="New_Layer">
	<g>
		<g>
			<path class="st0" d="M48.6,26.6L18,44.4v16.2v16.1l31,17.9l30.8,17.9l31-17.9l30.8-17.9l0.4-11.1c0.3-6.2,0-11.2-0.6-11.2
				c-0.6,0-14.6,7.9-31.4,17.5L79.8,89.4L63.6,80C37.9,65.4,36.8,64.5,36.8,60.8c0-4,1.7-5.3,25.3-18.7l17.6-10.1l6.9,3.9
				c3.9,2.1,7.1,4.2,7.1,4.6S86.2,45.5,77,50.7c-9.2,5.3-16.7,9.7-16.7,10c0,0.8,17.8,10.4,19.6,10.4c1.8,0,53.9-29.4,54-30.5
				c0-0.7-51.8-31-53.9-31.5C79.5,8.9,65.4,16.8,48.6,26.6z"/>
			<path class="st0" d="M17.6,105.9l0.4,11.2l31,17.9L79.8,153l31-17.9l30.8-17.9l0.4-11.2c0.3-6.2,0-11.2-0.4-11.2
				s-14.6,7.9-31.2,17.5l-30.5,17.6l-30.5-17.6C32.6,102.6,18.4,94.7,18,94.7C17.6,94.7,17.3,99.7,17.6,105.9z"/>
		</g>
		<g>
			<g>
				<g>
					<path class="st1" d="M180.5,19.2H211v13.1h-17.4v11.3h15.7v12.2h-15.7v11.3H211v13.1h-30.5V19.2z"/>
					<path class="st1" d="M286.7,80.2h-12.8V33.6c0-2.9-1.7-4-3.9-4c-2.2,0-3.9,1.1-3.9,4v46.5H253V33.6c0-2.9-1.5-4-3.7-4
						c-2.2,0-3.9,1.1-3.9,4v46.5h-13.1V33.4c0-13.1,6.7-15.1,15.8-15.1c4.7,0,9.1,2.4,10.9,5h0.5c2-2.7,6.5-5,11.4-5
						c9.1,0,15.8,2.1,15.8,15.1V80.2L286.7,80.2z"/>
					<path class="st1" d="M309.3,22.3h13.1v120.9h-13.1V22.3z"/>
					<path class="st1" d="M378.7,143.2h-12.8V33.5c0-2-1.7-3-3.9-3h-3.9v49.6H345V19.2h17.2c9.1,0,16.5,1.2,16.5,14.3V143.2z"/>
					<path class="st1" d="M401.4,19.2h30.5v13.1h-17.4v11.3h15.7v12.2h-15.7v11.3h17.4v13.1h-30.5V19.2z"/>
					<path class="st1" d="M486.9,80.2h-12.8V33.5c0-2-1.7-3-3.9-3h-3.9v49.6h-13.1V19.2h17.2c9,0,16.5,1.2,16.5,14.3L486.9,80.2
						L486.9,80.2z"/>
					<path class="st1" d="M508.3,19.2h32.2v13.1h-9.6v47.9h-13.1V32.3h-9.6L508.3,19.2L508.3,19.2z"/>
				</g>
			</g>
			<g>
				<g>
					<path class="st1" d="M300.4,100.5v24.6c0,13.2-9.3,18.1-9.3,18.1h-4.9c0,0-9.4-4.9-9.4-18.1v-24.6h9.2v26.6
						c0,5.9,2.6,7.3,2.6,7.3h0.3c0,0.1,2.6-1.5,2.6-7.3v-26.6L300.4,100.5L300.4,100.5z"/>
					<path class="st1" d="M343.2,99.9c6.4,0,11.9,2.7,11.9,10.6v2.9l-8.4,0.8v-3.6c0-2.3-1.5-2.7-3-2.7s-3.2,0.5-3.2,2.7
						c0,7.7,15.1,11.2,15.1,22.5c0,7.9-6.1,10.6-12.5,10.6c-6.4,0-11.8-2.7-11.8-10.6v-2.6l9-1v3.5c0,2,1.3,2.8,2.8,2.8
						c1.5,0,3.4-0.7,3.4-2.8c0-6.2-15.1-11.3-15.1-22.6C331.4,102.5,336.9,99.9,343.2,99.9z"/>
					<path class="st1" d="M390.6,110.4c0-9.2,5.6-10.6,12-10.6s11.8,1.5,11.8,10.6v22.7c0,9.2-5.5,10.6-12,10.6
						c-6.3,0-11.8-1.5-11.8-10.6V110.4z M399.8,110.9v21.9c0,2.3,1.3,3.1,2.7,3.1c1.5,0,2.8-0.8,2.8-3.1v-21.9c0-2.1-1.2-3-2.8-3
						C401.1,107.9,399.8,108.8,399.8,110.9z"/>
					<path class="st1" d="M449.9,143.2h-9v-32.6c0-1.4-1.2-2.1-2.8-2.1h-2.7v34.8h-9.2v-42.7h12c6.4,0,11.6,0.9,11.6,10v32.6H449.9z
						"/>
				</g>
			</g>
		</g>
	</g>
</g>
<g id="MasterLayer_1">
</g>
</svg>
