<?xml version="1.0" encoding="utf-8"?>
<!-- Generator: Adobe Illustrator 25.2.3, SVG Export Plug-In . SVG Version: 6.00 Build 0)  -->
<svg version="1.1" id="Layer_1" xmlns="http://www.w3.org/2000/svg" xmlns:xlink="http://www.w3.org/1999/xlink" x="0px" y="0px"
	 viewBox="0 0 157 55" style="enable-background:new 0 0 157 55;" xml:space="preserve">
<style type="text/css">
	.st0{fill:#FFFFFF;}
</style>
<g>
	<g>
		<path class="st0" d="M9.3,6.7l-9.2,6.8v6.2v6.2l9.3,6.8l9.3,6.8l9.3-6.8l9.3-6.8l0.1-4.2c0.1-2.4,0-4.3-0.2-4.3s-4.4,3-9.4,6.7
			l-9.1,6.7l-4.9-3.6c-7.7-5.6-8-5.9-8-7.3c0-1.5,0.5-2,7.6-7.2l5.3-3.9l2.1,1.5c1.2,0.8,2.1,1.6,2.1,1.8c0,0.2-2.3,2-5,3.9
			c-2.8,2-5,3.7-5,3.8c0,0.3,5.3,4,5.9,4S34.9,12.5,35,12c0-0.3-15.5-11.8-16.2-12C18.6-0.1,14.4,3,9.3,6.7z"/>
		<path class="st0" d="M0,37l0.1,4.3l9.3,6.8l9.3,6.8l9.3-6.8l9.3-6.8l0.1-4.3c0.1-2.4,0-4.3-0.1-4.3c-0.1,0-4.4,3-9.4,6.7l-9.2,6.7
			l-9.2-6.7c-5-3.7-9.3-6.7-9.4-6.7S0,34.6,0,37z"/>
	</g>
	<g>
		<g>
			<g>
				<path class="st0" d="M48.9,3.9h9.2v5h-5.2v4.3h4.7v4.7h-4.7v4.3h5.2v5h-9.2V3.9z"/>
				<path class="st0" d="M80.8,27.2H77V9.4c0-1.1-0.5-1.5-1.2-1.5c-0.7,0-1.2,0.4-1.2,1.5v17.8h-3.9V9.4c0-1.1-0.5-1.5-1.1-1.5
					c-0.7,0-1.2,0.4-1.2,1.5v17.8h-3.9V9.3c0-5,2-5.8,4.7-5.8c1.4,0,2.7,0.9,3.3,1.9h0.2c0.6-1,2-1.9,3.4-1.9c2.7,0,4.7,0.8,4.7,5.8
					L80.8,27.2L80.8,27.2z"/>
				<path class="st0" d="M87.6,5.1h3.9v46.2h-3.9V5.1z"/>
				<path class="st0" d="M108.4,51.3h-3.8V9.4c0-0.8-0.5-1.1-1.2-1.1h-1.2v18.9h-3.9V3.9h5.2c2.7,0,5,0.5,5,5.5V51.3z"/>
				<path class="st0" d="M115.2,3.9h9.2v5h-5.2v4.3h4.7v4.7h-4.7v4.3h5.2v5h-9.2V3.9z"/>
				<path class="st0" d="M140.9,27.2h-3.8V9.4c0-0.8-0.5-1.1-1.2-1.1h-1.2v18.9h-3.9V3.9h5.2c2.7,0,5,0.5,5,5.5V27.2L140.9,27.2z"/>
				<path class="st0" d="M147.3,3.9h9.7v5h-2.9v18.3h-3.9V8.9h-2.9L147.3,3.9L147.3,3.9z"/>
			</g>
		</g>
		<g>
			<g>
				<path class="st0" d="M84.9,34.9v9.4c0,5-2.8,6.9-2.8,6.9h-1.5c0,0-2.8-1.9-2.8-6.9v-9.4h2.8v10.2c0,2.3,0.8,2.8,0.8,2.8h0.1
					c0,0,0.8-0.6,0.8-2.8V34.9L84.9,34.9L84.9,34.9z"/>
				<path class="st0" d="M97.8,34.7c1.9,0,3.6,1,3.6,4v1.1l-2.5,0.3v-1.4c0-0.9-0.5-1-0.9-1c-0.5,0-1,0.2-1,1c0,2.9,4.5,4.3,4.5,8.6
					c0,3-1.8,4-3.8,4c-1.9,0-3.5-1-3.5-4v-1l2.7-0.4v1.3c0,0.8,0.4,1.1,0.8,1.1c0.5,0,1-0.3,1-1.1c0-2.4-4.5-4.3-4.5-8.6
					C94.2,35.7,95.9,34.7,97.8,34.7z"/>
				<path class="st0" d="M112,38.7c0-3.5,1.7-4,3.6-4c1.9,0,3.5,0.6,3.5,4v8.7c0,3.5-1.7,4-3.6,4c-1.9,0-3.5-0.6-3.5-4V38.7z
					 M114.8,38.9v8.4c0,0.9,0.4,1.2,0.8,1.2c0.5,0,0.8-0.3,0.8-1.2v-8.4c0-0.8-0.4-1.1-0.8-1.1C115.2,37.8,114.8,38.1,114.8,38.9z"
					/>
				<path class="st0" d="M129.8,51.2h-2.7V38.8c0-0.5-0.4-0.8-0.8-0.8h-0.8v13.3h-2.8V35h3.6c1.9,0,3.5,0.3,3.5,3.8L129.8,51.2
					L129.8,51.2z"/>
			</g>
		</g>
	</g>
</g>
</svg>
